<svg height="512" viewBox="0 0 60 60" width="512" xmlns="http://www.w3.org/2000/svg"><g id="Page-1" fill="none" fill-rule="evenodd"><g id="047---Marker" transform="translate(0 -1)"><path id="Shape" d="m30 60s20-23.3 20-38.44c-.1285173-10.9211936-9.0786496-19.674423-20-19.56-10.9213504-.114423-19.8714827 8.6388064-20 19.56 0 15.14 20 38.44 20 38.44z" fill="#ef314c"/><path id="Shape" d="m30 2c-.506 0-1 .038-1.5.074 10.3171884.65021913 18.3859009 9.1489722 18.5 19.486 0 12.606-13.861 30.862-18.5 36.62.932 1.156 1.5 1.82 1.5 1.82s20-23.3 20-38.44c-.1285173-10.9211936-9.0786496-19.674423-20-19.56z" fill="#bb193b"/><circle id="Oval" cx="30" cy="22" fill="#ffdc00" fill-rule="nonzero" r="9"/><path id="Shape" d="m30 13c-.5028835.0032224-1.0046224.0483789-1.5.135 4.3297277.7267089 7.5010833 4.4747098 7.5010833 8.865s-3.1713556 8.1382911-7.5010833 8.865c3.3570875.5877651 6.7581917-.7711782 8.7859125-3.5104942 2.0277208-2.7393161 2.334161-6.389019.7916126-9.4281058-1.5425485-3.0390868-4.6694296-4.9461397-8.0775251-4.9264z" fill="#fec108"/><g fill-rule="nonzero"><path id="Shape" d="m14 23c-.5522847 0-1-.4477153-1-1 .0004326-1.0693625.1008699-2.1363414.3-3.187.0668087-.3510134.3158059-.6397212.6531968-.75737.3373908-.1176487.7119177-.0463647.9825.187.2705822.2333648.3961119.5933566.3293032.94437-.1760583.9273233-.2647799 1.8691118-.265 2.813 0 .2652165-.1053568.5195704-.2928932.7071068s-.4418903.2928932-.7071068.2928932z" fill="#f5f5f5"/><path id="Shape" d="m16.14 15c-.3570824-.000366-.6868739-.1911096-.8652566-.5004437s-.1782849-.6903138.0002566-.9995563c3.0469808-5.25083696 8.6541495-8.48757272 14.725-8.5.5522847 0 1 .44771525 1 1s-.4477153 1-1 1c-5.3570258.0108208-10.3049983 2.86673844-12.994 7.5-.1786283.3093932-.5087435.4999909-.866.5z" fill="#f5f5f5"/><path id="Shape" d="m40 22c.0004322-3.6903205-2.0315984-7.080934-5.2862044-8.8204756-3.254606-1.7395417-7.2027263-1.5452355-10.2707956.5054756-.4589486.3076226-.5816226.9290514-.274 1.388s.9290514.5816226 1.388.274c3.2565893-2.1704218 7.6065704-1.6589143 10.2708585 1.2077342 2.664288 2.8666485 2.8565478 7.2423784.4539497 10.3316545s-6.6909537 3.9803328-10.1253528 2.1038979c-3.4343991-1.8764348-5.0012166-5.9665519-3.6994554-9.6572866.1839108-.5210807-.0894194-1.0925892-.6105-1.2765-.5210807-.1839108-1.0925892.0894194-1.2765.6105-1.3242668 3.7524413-.297705 7.9329457 2.6140275 10.6451978 2.9117326 2.7122522 7.1544632 3.4400453 10.8036502 1.8532458 3.6491869-1.5867995 6.0103023-5.1861856 6.0123223-9.1654436z" fill="#000"/><path id="Shape" d="m1 61h2c.55228475 0 1-.4477153 1-1s-.44771525-1-1-1h-2c-.55228475 0-1 .4477153-1 1s.44771525 1 1 1z" fill="#000"/><path id="Shape" d="m59 59h-2c-.5522847 0-1 .4477153-1 1s.4477153 1 1 1h2c.5522847 0 1-.4477153 1-1s-.4477153-1-1-1z" fill="#000"/><path id="Shape" d="m6 60c0 .5522847.44771525 1 1 1h46c.5522847 0 1-.4477153 1-1s-.4477153-1-1-1h-20.871c4.571-5.629 18.871-24.278 18.871-37.439-.1356745-11.4705837-9.5291097-20.66765136-21-20.561-11.4708903-.10665136-20.86432545 9.0904163-21 20.561 0 13.161 14.3 31.81 18.871 37.439h-20.871c-.55228475 0-1 .4477153-1 1zm24-57c10.3670302-.10837308 18.866044 8.1942688 19 18.561 0 12.939-15.372 32.451-19 36.876-3.628-4.425-19-23.937-19-36.876.133956-10.3667312 8.6329698-18.66937308 19-18.561z" fill="#000"/><path id="Shape" d="m6 1c-.55228475 0-1 .44771525-1 1v2c0 .55228475.44771525 1 1 1s1-.44771525 1-1v-2c0-.55228475-.44771525-1-1-1z" fill="#000"/><path id="Shape" d="m6 9c-.55228475 0-1 .44771525-1 1v2c0 .5522847.44771525 1 1 1s1-.4477153 1-1v-2c0-.55228475-.44771525-1-1-1z" fill="#000"/><path id="Shape" d="m3 6h-2c-.55228475 0-1 .44771525-1 1s.44771525 1 1 1h2c.55228475 0 1-.44771525 1-1s-.44771525-1-1-1z" fill="#000"/><path id="Shape" d="m11 6h-2c-.55228475 0-1 .44771525-1 1s.44771525 1 1 1h2c.5522847 0 1-.44771525 1-1s-.4477153-1-1-1z" fill="#000"/><path id="Shape" d="m51 42c-.5522847 0-1 .4477153-1 1v2c0 .5522847.4477153 1 1 1s1-.4477153 1-1v-2c0-.5522847-.4477153-1-1-1z" fill="#000"/><path id="Shape" d="m51 50c-.5522847 0-1 .4477153-1 1v2c0 .5522847.4477153 1 1 1s1-.4477153 1-1v-2c0-.5522847-.4477153-1-1-1z" fill="#000"/><path id="Shape" d="m48 47h-2c-.5522847 0-1 .4477153-1 1s.4477153 1 1 1h2c.5522847 0 1-.4477153 1-1s-.4477153-1-1-1z" fill="#000"/><path id="Shape" d="m56 47h-2c-.5522847 0-1 .4477153-1 1s.4477153 1 1 1h2c.5522847 0 1-.4477153 1-1s-.4477153-1-1-1z" fill="#000"/></g></g></g></svg>